<svg xmlns="http://www.w3.org/2000/svg" xmlns:svg="http://www.w3.org/2000/svg" id="ecbd41bb-42c8-4cdc-97fe-fcff3c9d3024" data-name="Layer 1" version="1.1" viewBox="130 -30 860 931"><metadata id="metadata93"/><title id="title2">wandering_mind</title><polygon id="polygon4" points="338.02 488.115 305.76 441.125 710 163.615 810.7 163.615" transform="matrix(-1,0,0,1,990,0)" style="fill:#f2f2f2"/><polygon id="polygon6" points="933.75 163.615 966 163.615 966 210.605 301.02 667.115 268.76 620.125" transform="matrix(-1,0,0,1,990,0)" style="fill:#f2f2f2"/><polygon id="polygon8" points="966 371.065 452.46 723.615 351.75 723.615 966 301.935" transform="matrix(-1,0,0,1,990,0)" style="fill:#f2f2f2"/><ellipse id="ellipse10" cx="-495" cy="749.615" rx="495" ry="23" transform="scale(-1,1)" style="fill:#3f3d56"/><ellipse id="ellipse12" cx="-258" cy="753.615" rx="115" ry="16" transform="scale(-1,1)" style="opacity:.1"/><ellipse id="ellipse14" cx="-662" cy="750.615" rx="145" ry="19" transform="scale(-1,1)" style="opacity:.1"/><polygon id="polygon16" points="402.305 736.618 381.985 748.23 402.305 485.515 501.73 222.8 527.131 216.994 546 222.8" transform="matrix(-1,0,0,1,990,0)" style="fill:#6c63ff"/><polygon id="polygon18" points="402.305 736.618 381.985 748.23 402.305 485.515 501.73 222.8 527.131 216.994 546 222.8" transform="matrix(-1,0,0,1,990,0)" style="opacity:.1"/><polygon id="polygon20" points="143.582 63.502 384.525 747.867 529.671 217.357" transform="matrix(-1,0,0,1,990,0)" style="fill:#6c63ff"/><path id="path22" d="m 773.12699,494.03872 c -40.6287,36.75244 -32.96383,73.73671 -6.01423,103.52867 q 0.939,1.038 1.8921,2.04506 1.91816,2.03067 3.89664,3.92828 c 26.22673,25.16608 60.03812,32.56842 97.82272,-1.61128 39.10238,-35.37179 43.24127,-129.98579 43.49955,-137.03432 -0.003,-0.003 -0.003,-0.003 -0.003,-0.01 0.0103,-0.26817 0.0139,-0.40393 0.0139,-0.40393 0,0 -100.48258,-7.19236 -141.10798,29.55711 z" style="fill:#6c63ff"/><path id="path24" d="m 775.10337,593.90879 9.71941,-44.66688 -12.7007,47.45406 -3.11737,2.91623 q 1.91817,2.03067 3.89665,3.92828 l 38.72243,-38.89308 0.32948,-0.268 0.0267,-0.0903 3.658,-3.67629 48.60683,-7.914 -45.7835,5.25171 -0.85943,0.68713 29.2565,-29.385 47.04815,-11.69354 -41.84,6.603 62.15713,-59.2672 0.20593,-0.19826 -0.20858,0.18867 -49.95908,45.69826 4.62166,-34.9021 -8.87984,38.88653 -27.09315,25.321 12.11083,-39.65399 -16.09662,43.37382 -15.06538,14.07955 16.01187,-56.13243 -21.26494,61.04688 z" style="fill:#3f3d56"/><path id="path26" d="m 665,424.6148 a 170,170 0 1 1 -170,170 170,170 0 0 1 170,-170 z m -3,211.5 c 19.05371,0 34.5,-18.80408 34.5,-42 0,-23.19592 -15.44629,-42 -34.5,-42 -19.05371,0 -34.5,18.804 -34.5,42 0,23.196 15.44629,42 34.5,42 z" style="fill:#3f3d56"/><path id="path28" d="m 663,636.1148 c 19.05371,0 34.5,-18.80408 34.5,-42 0,-23.19592 -15.44629,-42 -34.5,-42 -18.45313,0 -33.52222,17.63739 -34.4541,39.82019 -0.0212,-0.60529 -0.0459,-1.20972 -0.0459,-1.82019 a 50.98991,50.98991 0 1 1 26.9563,44.98071 28.70385,28.70385 0 0 0 7.5437,1.01929 z" style="opacity:.1"/><path id="path30" d="M 841.70108,0 A 73.29893,73.29893 0 1 1 768.40216,73.29893 73.29892,73.29892 0 0 1 841.70108,0 Z m -1.29351,91.19249 c 8.21539,0 14.87537,-8.10776 14.87537,-18.10915 0,-10.00139 -6.66,-18.10914 -14.87537,-18.10914 -8.21537,0 -14.87537,8.10773 -14.87537,18.10914 0,10.00141 6.65998,18.10915 14.87537,18.10915 z" style="fill:#3f3d56"/><path id="path32" d="m 840.83876,91.19249 c 8.21539,0 14.87537,-8.10776 14.87537,-18.10915 0,-10.00139 -6.66,-18.10914 -14.87537,-18.10914 -7.95644,0 -14.45378,7.60471 -14.85558,17.16927 -0.009,-0.261 -0.0198,-0.52159 -0.0198,-0.78481 a 21.98533,21.98533 0 1 1 11.62275,19.39434 12.37641,12.37641 0 0 0 3.25262,0.43949 z" style="opacity:.1"/><path id="path34" d="m 308,661.6148 h 11 v 93 c 0,0 -71,23 -140,0 v -93 z" style="fill:#3f3d56"/><ellipse id="ellipse36" cx="-250" cy="662.115" rx="69" ry="10.5" transform="scale(-1,1)" style="fill:#3f3d56"/><ellipse id="ellipse38" cx="-250" cy="662.115" rx="69" ry="10.5" transform="scale(-1,1)" style="opacity:.1"/><path id="path40" d="m 169.79195,550.50089 c 17.40644,64.34463 77.0274,104.19488 77.0274,104.19488 0,0 31.39956,-64.473 13.99312,-128.81764 -17.40644,-64.34464 -77.02739,-104.19488 -77.02739,-104.19488 0,0 -31.39956,64.47301 -13.99313,128.81764 z" style="fill:#3f3d56"/><path id="path42" d="m 328.14194,550.50089 c -17.40643,64.34463 -77.0274,104.19488 -77.0274,104.19488 0,0 -31.39955,-64.473 -13.99312,-128.81764 17.40643,-64.34464 77.02739,-104.19488 77.02739,-104.19488 0,0 31.39956,64.47301 13.99313,128.81764 z" style="fill:#6c63ff"/><path id="path44" d="m 302.56442,536.67254 c -47.76351,46.49584 -53.59747,117.97077 -53.59747,117.97077 0,0 71.606,-3.90972 119.36947,-50.40556 47.76347,-46.49584 53.59747,-117.97078 53.59747,-117.97078 0,0 -71.60597,3.90972 -119.36947,50.40557 z" style="fill:#3f3d56"/><path id="path46" d="m 195.36947,536.67254 c 47.76353,46.49586 53.59748,117.97078 53.59748,117.97078 0,0 -71.606,-3.90972 -119.36948,-50.40557 C 81.83399,557.74191 76,486.26697 76,486.26697 c 0,0 71.606,3.90972 119.36947,50.40557 z" style="fill:#3f3d56"/><circle id="circle48" cx="-249" cy="421.615" r="22" transform="scale(-1,1)" style="fill:#6c63ff"/><path id="path50" d="m 658.56382,249.9684 c 0,0 -42.34638,1.1513 -49.34015,3.69576 -6.99376,2.54446 -10.1211,20.7396 -10.1211,20.7396 l 32.87919,10.33437 24.59188,-1.393 18.50788,1.30783 -10.33421,-27.06532 z" style="fill:#2f2e41"/><path id="path52" d="m 656.73725,236.07331 c 0,0 -2.78616,10.76072 3.39733,18.38 6.18349,7.61928 -26.58208,34.76969 -26.58208,34.76969 l -17.28539,-2.971 c 0,0 3.8097,-33.064 -1.30766,-41.43662 -5.11736,-8.37262 41.7778,-8.74207 41.7778,-8.74207 z" style="fill:#9f616a"/><path id="path54" d="m 656.73725,236.07331 c 0,0 -2.78616,10.76072 3.39733,18.38 6.18349,7.61928 -26.58208,34.76969 -26.58208,34.76969 l -17.28539,-2.971 c 0,0 3.8097,-33.064 -1.30766,-41.43662 -5.11736,-8.37262 41.7778,-8.74207 41.7778,-8.74207 z" style="opacity:.1"/><polygon id="polygon56" points="410.081 601.27 436.109 616.465 471.931 557.857 448.22 550.693" transform="matrix(-1,0,0,1,990,0)" style="fill:#9f616a"/><path id="path58" d="m 568.53239,602.12261 c 0,0 14.04443,-16.31875 13.419,-12.67972 -0.62543,3.63903 9.993,34.49975 0.11362,37.48486 -9.87938,2.98511 -94.60062,10.90262 -95.76622,1.336 -1.1656,-9.56662 25.27421,-16.2619 25.27421,-16.2619 0,0 15.70758,-15.09625 19.19024,-13.561 3.48266,1.53525 37.76915,3.68176 37.76915,3.68176 z" style="fill:#2f2e41"/><polygon id="polygon60" points="470.126 650.894 493.125 637.575 462.407 595.086 439.663 598.995" transform="matrix(-1,0,0,1,990,0)" style="fill:#9f616a"/><path id="path62" d="m 502.24836,475.52395 9.04068,12.7935 c 0,0 43.09961,59.85933 38.52238,64.6924 -4.57723,4.83307 -23.63955,23.09925 -33.33415,19.5597 C 506.78267,569.03 472.34,507.8487 472.34,507.8487 l 8.984,-35.92119 z" style="fill:#2f2e41"/><path id="path64" d="m 687.91,463.41331 c 0,0 -9.652,18.01034 -34.116,24.10849 -24.464,6.09815 -50.02251,18.5646 -50.93227,18.40824 -0.90976,-0.15636 -3.48266,-1.53523 -4.10813,2.1038 -0.62547,3.63903 -7.335,9.97889 -7.335,9.97889 0,0 -27.02289,91.82859 -37.343,91.92807 -10.32011,0.0995 -31.52877,-7.29237 -31.96943,-10.178 -0.44066,-2.88563 31.60014,-96.66167 31.91287,-98.48118 L 557.772,479.4474 c 0,0 -42.37483,6.7662 -46.32659,7.96025 -3.95176,1.19405 -39.10541,20.44105 -39.10541,20.44105 0,0 -35.83585,-25.82869 -2.3169,-51.91306 33.51895,-26.08437 91.13226,-45.21755 91.13226,-45.21755 l 20.66857,-5.81386 18.01336,-1.07517 2.65227,-10.17094 42.66206,2.46144 44.52121,18.89184 z" style="fill:#2f2e41"/><circle id="circle66" cx="-631.605" cy="224.261" r="33.232" transform="scale(-1,1)" style="fill:#9f616a"/><path id="path68" d="m 661.6698,250.9706 -3.99683,-0.687 c 0,0 -7.21885,27.79487 -29.55057,32.38624 0,0 -11.01915,-13.2004 -10.54876,-15.4277 0.47039,-2.2273 -8.72665,-14.111 -13.61662,-7.45846 -4.88997,6.65254 1.19372,123.84077 -2.91441,125.94458 -4.10813,2.10381 -12.92142,4.33553 -5.82817,12.11113 7.09325,7.7756 35.26728,18.2379 41.50765,14.62731 6.24037,-3.61059 18.99129,-34.20115 24.50673,-44.49277 5.51544,-10.29162 14.343,-45.303 14.343,-45.303 0,0 11.27257,-38.33773 4.33569,-47.02309 -6.93688,-8.68536 -18.23771,-24.67724 -18.23771,-24.67724 z" style="fill:#d0cde1"/><path id="path70" d="m 629.86542,395.24128 a 189.57234,189.57234 0 0 0 3.80658,24.26812 c 1.62981,6.508 3.52744,10.43726 5.693,10.26986 5.52564,-0.413 8.03729,7.69124 9.33222,17.03456 1.38419,9.91264 1.38419,21.22057 2.14325,25.2169 1.00462,5.28008 7.43445,9.30986 20.28293,8.1266 a 90.65925,90.65925 0 0 0 22.3481,-5.481 c 17.34708,-6.307 16.83363,-57.45529 13.93125,-95.40907 -1.77486,-23.26346 -4.44281,-41.58171 -4.44281,-41.58171 0,0 5.26885,-15.71735 6.95445,-26.48955 a 35.2107,35.2107 0 0 0 0.50235,-5.94976 c -0.25673,-9.4103 -17.43641,-34.83937 -27.81787,-50.67949 -10.39264,-15.84012 -24.5695,-4.21953 -24.5695,-4.21953 l 4.934,14.89124 c 0,0 -7.64654,11.79917 -7.70241,23.029 -0.0559,11.22983 -18.30708,19.33411 -24.85968,24.77042 -4.1191,3.41581 -4.01868,49.0162 -0.53586,82.20341 z" style="fill:#2f2e41"/><path id="path72" d="m 615.43562,255.66852 c 0,0 -1.19752,1.41555 -6.681,0.72495 -6.5762,-0.82821 -15.61831,1.4471 -17.719,7.72578 -3.85229,11.51411 -14.71265,58.35239 -14.71265,58.35239 0,0 -4.52051,53.54776 -6.55328,65.3746 -2.03277,11.82684 -1.02354,22.30328 -3.02786,28.51521 -2.00432,6.21193 19.78726,-11.58514 27.81871,-9.26808 8.03145,2.31706 13.19156,-27.70493 12.18233,-38.18136 -1.00923,-10.47643 -1.8621,-21.86262 0.92406,-32.62334 2.78616,-10.76072 -2.15346,-39.24041 -1.96865,-45.76508 0.18481,-6.52467 17.7094,-22.96904 9.73734,-34.85507 z" style="fill:#2f2e41"/><path id="path74" d="m 591.922,422.09432 c 0,0 -35.18569,19.19573 -38.5531,46.51753 -3.36741,27.3218 47.0621,-26.45464 47.0621,-26.45464 z" style="fill:#9f616a"/><path id="path76" d="m 571.83646,402.71929 c 0,0 -10.78165,54.34487 -27.57717,51.45809 -16.79552,-2.88678 9.382,-54.58543 9.382,-54.58543 z" style="fill:#9f616a"/><path id="path78" d="m 514.31641,639.63575 c 0,0 8.6,9.90785 10.73228,8.40107 2.13228,-1.50678 7.03635,19.00543 2.61549,22.92874 -4.42086,3.92331 -21.45041,10.36265 -21.63522,16.88732 -0.18481,6.52467 -45.85749,5.231 -47.49219,-1.60642 -1.6347,-6.83742 5.72869,-22.4312 10.90294,-25.28839 5.17425,-2.85719 24.3062,-29.15464 24.3062,-29.15464 0,0 14.98404,2.18897 20.5705,7.83232 z" style="fill:#2f2e41"/><path id="path80" d="m 597.5266,455.33106 c 8.16006,-5.76009 30.94346,-7.1889 51.17065,-8.51728 8.87443,-0.56932 17.25776,-1.12746 23.69876,-2.03165 6.20656,-0.85957 11.788,-6.53033 16.74432,-14.98063 7.51259,-12.80379 13.5852,-32.00395 18.26245,-50.5343 -1.77486,-23.26346 -4.44281,-41.58171 -4.44281,-41.58171 0,0 5.26885,-15.71735 6.95445,-26.48955 a 14.17608,14.17608 0 0 0 -4.48749,-4.041 c -21.455,-9.20937 -41.93887,81.422 -44.53984,95.64359 -0.0447,0.23437 -0.0781,0.45764 -0.11167,0.64739 -1.26134,7.32285 -14.89124,13.58527 -27.10343,16.0634 -7.52376,1.52931 -14.52291,1.6298 -17.749,-0.35722 -8.47258,-5.20187 -34.52676,15.61685 -36.50255,16.20852 -1.97585,0.60278 6.38514,28.26445 18.10616,19.97044 z" style="opacity:.1"/><path id="path82" d="m 705.42332,301.576 c 0,0 15.5938,7.36339 8.74209,41.7778 -6.85171,34.41441 -20.6546,92.92316 -41.76383,95.85139 -21.10923,2.92823 -63.14288,2.26 -74.87024,10.5473 -11.72736,8.2873 -20.08569,-19.37509 -18.10981,-19.97209 1.97588,-0.597 28.032,-21.40766 36.50407,-16.205 8.47207,5.20266 42.81548,-3.88057 44.84825,-15.70741 2.03277,-11.82684 22.84374,-105.65971 44.64947,-96.29199 z" style="fill:#2f2e41"/><path id="path84" d="m 593.05408,285.07211 -17.138,39.76705 c 0,0 -1.72533,-0.86074 -3.72966,5.35119 -2.00433,6.21193 -2.94253,11.67048 -6.45363,15.75017 -3.5111,4.07969 -19.13352,62.2757 -19.60262,65.005 -0.4691,2.7293 21.57707,12.13832 26.50318,4.55531 4.92611,-7.58301 20.42073,-130.42872 20.42073,-130.42872 z" style="fill:#2f2e41"/><path id="path86" d="m 650.51185,223.79803 c -1.27358,-0.34005 -1.46068,-2.031 -1.50337,-3.34847 -0.22859,-7.05539 -4.4771,-14.295 -11.23078,-16.34894 a 18.88113,18.88113 0 0 0 -7.95871,-0.438 30.14537,30.14537 0 0 0 -10.77823,3.59581 c -1.759,0.98891 -3.48436,2.18 -5.47953,2.482 -1.31767,0.19951 -7.02305,1.85834 -8.33513,2.09178 -2.88475,0.51326 -5.56568,3.09426 -8.33384,2.13382 -2.64832,-0.91887 -3.23456,-4.34783 -3.29857,-7.15029 -0.14583,-6.38458 4.701,-15.22108 8.97,-19.97071 3.23965,-3.60432 8.11764,-5.26813 12.88608,-6.13328 a 85.791,85.791 0 0 1 16.85259,-1.02521 c 7.63115,0.1361 15.47383,0.72511 22.355,4.027 6.88117,3.30189 12.66118,9.8735 12.991,17.49874 0.0687,1.5884 -0.0952,3.18344 0.0384,4.76771 0.3258,3.86482 2.37806,7.35567 3.34078,11.11282 a 20.33478,20.33478 0 0 1 -2.83974,16.25034 c -2.5538,3.75828 -6.56761,7.15739 -6.42,11.69885 l -5.53742,-5.7369 a 4.54727,4.54727 0 0 1 -1.35239,-5.55564 l 1.96,-7.64516 a 6.89794,6.89794 0 0 0 0.16972,-4.25467 c -2.10108,-5.1921 -4.3724,2.51534 -6.49586,1.9484 z" style="fill:#2f2e41"/></svg>