<?xml version="1.0" encoding="UTF-8" standalone="no"?>
<svg
   xmlns:dc="http://purl.org/dc/elements/1.1/"
   xmlns:cc="http://creativecommons.org/ns#"
   xmlns:rdf="http://www.w3.org/1999/02/22-rdf-syntax-ns#"
   xmlns:svg="http://www.w3.org/2000/svg"
   xmlns="http://www.w3.org/2000/svg"
   xmlns:sodipodi="http://sodipodi.sourceforge.net/DTD/sodipodi-0.dtd"
   xmlns:inkscape="http://www.inkscape.org/namespaces/inkscape"
   id="Flat"
   height="512"
   viewBox="0 0 512 512"
   width="512"
   version="1.1"
   sodipodi:docname="html5svg.svg"
   inkscape:version="0.92.3 (2405546, 2018-03-11)">
  <metadata
     id="metadata29">
    <rdf:RDF>
      <cc:Work
         rdf:about="">
        <dc:format>image/svg+xml</dc:format>
        <dc:type
           rdf:resource="http://purl.org/dc/dcmitype/StillImage" />
      </cc:Work>
    </rdf:RDF>
  </metadata>
  <defs
     id="defs27" />
  <sodipodi:namedview
     pagecolor="#ffffff"
     bordercolor="#666666"
     borderopacity="1"
     objecttolerance="10"
     gridtolerance="10"
     guidetolerance="10"
     inkscape:pageopacity="0"
     inkscape:pageshadow="2"
     inkscape:window-width="640"
     inkscape:window-height="480"
     id="namedview25"
     showgrid="false"
     inkscape:zoom="0.16296602"
     inkscape:cx="-368.30979"
     inkscape:cy="529.07765"
     inkscape:window-x="0"
     inkscape:window-y="0"
     inkscape:window-maximized="0"
     inkscape:current-layer="Flat" />
  <path
     d="m 120,488 h 272 a 48,48 0 0 0 48,-48 V 72 A 48,48 0 0 0 392,24 H 168 l -96,96 v 320 a 48,48 0 0 0 48,48 z"
     id="path2"
     inkscape:connector-curvature="0"
     style="fill:#cfd2fc" />
  <path
     d="M 440,360 H 72 v 80 a 48,48 0 0 0 48,48 h 272 a 48,48 0 0 0 48,-48 z"
     id="path4"
     inkscape:connector-curvature="0"
     style="fill:#5153ff" />
  <g
     id="g14"
     style="fill:#8690fa"
     transform="matrix(-1,0,0,1,512,4.2476148e-6)">
    <path
       d="M 440,120 H 392 A 48,48 0 0 1 344,72 V 24 Z"
       id="path6"
       inkscape:connector-curvature="0" />
    <path
       d="m 200,264 a 7.976,7.976 0 0 1 -5.657,-2.343 l -48,-48 a 8,8 0 0 1 0,-11.314 l 48,-48 a 8.0002061,8.0002061 0 0 1 11.314,11.314 L 163.313,208 205.657,250.343 A 8,8 0 0 1 200,264 Z"
       id="path8"
       inkscape:connector-curvature="0" />
    <path
       d="m 312,264 a 8,8 0 0 1 -5.657,-13.657 L 348.687,208 306.343,165.657 a 8.0002061,8.0002061 0 0 1 11.314,-11.314 l 48,48 a 8,8 0 0 1 0,11.314 l -48,48 A 7.976,7.976 0 0 1 312,264 Z"
       id="path10"
       inkscape:connector-curvature="0" />
    <path
       d="m 232,288 a 8.006,8.006 0 0 1 -7.59,-10.532 l 48,-144 a 8,8 0 1 1 15.178,5.06 l -48,144 A 8,8 0 0 1 232,288 Z"
       id="path12"
       inkscape:connector-curvature="0" />
  </g>
  <path
     d="m 129.35592,384.81356 a 8,8 0 0 1 8,8 v 24 h 16.00001 v -24 a 8,8 0 0 1 16,0 v 64 a 8,8 0 0 1 -16,0 v -24 h -16.00001 v 24 a 8,8 0 0 1 -16,0 v -64 a 8,8 0 0 1 8,-8 z"
     id="path16"
     inkscape:connector-curvature="0"
     style="fill:#ffffff" />
  <path
     d="m 201.89831,386.16949 h 32 a 8,8 0 0 1 0,16 h -8 v 56 a 8,8 0 0 1 -16,0 v -56 h -8 a 8,8 0 0 1 0,-16 z"
     id="path18"
     inkscape:connector-curvature="0"
     style="fill:#ffffff" />
  <path
     d="m 271.92471,386.38349 a 8,8 0 0 1 8.993,4.208 l 16.845,33.689 16.845,-33.689 a 8,8 0 0 1 15.155,3.578 v 64 a 8,8 0 0 1 -16,0 v -30.111 l -8.845,17.689 a 8,8 0 0 1 -14.31,0 l -8.845,-17.689 v 30.111 a 8,8 0 0 1 -16,0 v -64 a 8,8 0 0 1 6.162,-7.786 z"
     id="path20"
     inkscape:connector-curvature="0"
     style="fill:#ffffff" />
  <path
     d="m 395.79661,448 h -24 v -56 a 8,8 0 0 0 -16,0 v 64 a 8,8 0 0 0 8,8 h 32 a 8,8 0 0 0 0,-16 z"
     id="path22"
     inkscape:connector-curvature="0"
     style="fill:#ffffff" />
</svg>
