<svg enable-background="new 0 0 256 256" height="512" viewBox="0 0 256 256" width="512" xmlns="http://www.w3.org/2000/svg"><g id="Layer_28"><g><g><g><path d="m186.269 12.125h-100.368l-50.401 50.401v159.008c0 6.787 5.553 12.341 12.341 12.341h138.428c6.787 0 12.341-5.553 12.341-12.341v-197.068c-.001-6.788-5.554-12.341-12.341-12.341z" fill="#edf4fc"/></g></g><g><g><path d="m120.778 71.535h-17.657c-6.247 0-11.312 5.064-11.312 11.312v17.309h-13.068c-6.247 0-11.312 5.064-11.312 11.312v18.717c0 6.247 5.065 11.312 11.312 11.312h12.193c1.654 0 2.995-1.341 2.995-2.995v-9.456c0-7.174 5.815-12.989 12.989-12.989h20.403c2.634 0 4.769-2.135 4.769-4.769v-28.44c0-6.249-5.064-11.313-11.312-11.313z" fill="#5290db"/></g></g><g><g><path d="m155.759 99.095h-12.193c-1.654 0-2.995 1.341-2.995 2.995v9.456c0 7.174-5.815 12.989-12.989 12.989h-20.403c-2.634 0-4.769 2.135-4.769 4.769v28.44c0 6.247 5.065 11.312 11.312 11.312h17.657c6.247 0 11.312-5.064 11.312-11.312v-17.309h13.068c6.247 0 11.312-5.064 11.312-11.312v-18.717c0-6.246-5.065-11.311-11.312-11.311z" fill="#fc8c48"/></g></g><g><g><circle cx="106.65" cy="85.845" fill="#edf4fc" r="4.77"/></g></g><g><g><circle cx="127.85" cy="154.746" fill="#edf4fc" r="4.77"/></g></g><g><g><path d="m35.5 62.526h38.061c6.787 0 12.341-5.553 12.341-12.341v-38.06z" fill="#818182"/></g></g><g><g><path d="m55.991 19.551c-4.149.773-7.419 3.976-8.208 8.041-.04.204-.325.204-.364 0-.789-4.065-4.059-7.268-8.208-8.041-.208-.039-.208-.318 0-.357 4.149-.773 7.419-3.976 8.208-8.041.04-.204.325-.204.364 0 .789 4.065 4.059 7.268 8.208 8.041.209.039.209.318 0 .357z" fill="#fc657e"/></g></g><g><g><path d="m120.486 250.253c-2.91.542-5.204 2.789-5.757 5.64-.028.143-.228.143-.255 0-.553-2.851-2.847-5.098-5.757-5.64-.146-.027-.146-.223 0-.25 2.91-.542 5.204-2.789 5.757-5.64.028-.143.228-.143.255 0 .553 2.851 2.847 5.098 5.757 5.64.146.027.146.222 0 .25z" fill="#f5c84c"/></g></g><g><g><circle cx="75.055" cy="3.377" fill="#f5c84c" r="3.377"/></g></g><g><g><circle cx="212.055" cy="121.377" fill="#87d147" r="3.377"/></g></g><g><g><path d="m220.528 92.758h-1.824v-1.824c0-1.366-1.107-2.473-2.473-2.473s-2.473 1.107-2.473 2.473v1.824h-1.824c-1.366 0-2.473 1.107-2.473 2.473s1.107 2.473 2.473 2.473h1.824v1.824c0 1.366 1.107 2.473 2.473 2.473s2.473-1.107 2.473-2.473v-1.824h1.824c1.366 0 2.473-1.107 2.473-2.473s-1.108-2.473-2.473-2.473z" fill="#70d6f9"/></g></g><g><g><circle cx="141.439" cy="245.627" fill="#70d6f9" r="3.377"/></g></g><g><g><path d="m186.269 236.375h-138.428c-8.183 0-14.841-6.658-14.841-14.841v-159.008c0-.663.263-1.299.732-1.768l50.401-50.401c.469-.469 1.104-.732 1.768-.732h100.367c8.184 0 14.841 6.658 14.841 14.841v197.068c0 8.183-6.657 14.841-14.84 14.841zm-148.269-172.813v157.972c0 5.426 4.415 9.841 9.841 9.841h138.428c5.426 0 9.841-4.415 9.841-9.841v-197.068c0-5.426-4.415-9.841-9.841-9.841h-99.332z"/></g></g><g><g><path d="m73.561 65.026h-36.874c-1.381 0-2.5-1.119-2.5-2.5s1.119-2.5 2.5-2.5h36.873c5.426 0 9.841-4.415 9.841-9.841v-36.768c0-1.381 1.119-2.5 2.5-2.5s2.5 1.119 2.5 2.5v36.768c0 8.184-6.657 14.841-14.84 14.841z"/></g></g><g><g><path d="m103.689 186.172h-10.031c-.276 0-.5.224-.5.5v31.57c0 .276.224.5.5.5h4.075c.276 0 .5-.224.5-.5v-12.218h5.456c6.856 0 11.292-3.363 11.292-9.904 0-5.936-3.582-9.948-11.292-9.948zm-5.456 4.404h5.098c4.058 0 6.485 1.366 6.485 5.545 0 4.041-2.394 5.5-6.485 5.5h-5.098z"/></g></g><g><g><path d="m141.663 186.172h-4.657c-.188 0-.361.106-.446.275l-7.257 14.388-7.3-14.389c-.085-.168-.257-.274-.446-.274h-4.747c-.376 0-.618.401-.442.734l10.332 19.504v11.833c0 .276.224.5.5.5h4.119c.276 0 .5-.224.5-.5v-11.833l10.287-19.504c.174-.332-.066-.734-.443-.734z"/></g></g><g><g><path d="m90.935 143.996h-12.194c-7.616 0-13.812-6.196-13.812-13.812v-18.717c0-7.616 6.196-13.812 13.812-13.812h10.569v-14.808c0-7.616 6.196-13.812 13.812-13.812h17.657c7.616 0 13.812 6.196 13.812 13.812v28.44c0 4.008-3.261 7.269-7.268 7.269h-20.403c-5.784 0-10.489 4.706-10.489 10.489v9.456c-.001 3.029-2.467 5.495-5.496 5.495zm-12.194-41.341c-4.859 0-8.812 3.953-8.812 8.812v18.717c0 4.859 3.953 8.812 8.812 8.812h12.193c.273 0 .495-.222.495-.495v-9.456c0-8.541 6.948-15.489 15.489-15.489h20.403c1.25 0 2.268-1.018 2.268-2.269v-28.44c0-4.859-3.953-8.812-8.812-8.812h-17.657c-4.859 0-8.812 3.953-8.812 8.812v17.309c0 1.381-1.119 2.5-2.5 2.5h-13.067z"/></g></g><g><g><path d="m111.42 102.655h-19.08c-1.381 0-2.5-1.119-2.5-2.5s1.119-2.5 2.5-2.5h19.08c1.381 0 2.5 1.119 2.5 2.5s-1.119 2.5-2.5 2.5z"/></g></g><g><g><path d="m131.379 171.556h-17.657c-7.616 0-13.812-6.196-13.812-13.812v-28.44c0-4.008 3.261-7.269 7.269-7.269h20.402c5.784 0 10.489-4.706 10.489-10.489v-9.456c0-3.03 2.465-5.495 5.495-5.495h12.193c7.615 0 13.812 6.196 13.812 13.812v18.717c0 7.616-6.196 13.812-13.812 13.812h-10.568v14.809c0 7.615-6.196 13.811-13.811 13.811zm-24.2-44.52c-1.251 0-2.269 1.018-2.269 2.269v28.44c0 4.859 3.953 8.812 8.812 8.812h17.657c4.858 0 8.812-3.953 8.812-8.812v-17.309c0-1.381 1.119-2.5 2.5-2.5h13.068c4.858 0 8.812-3.953 8.812-8.812v-18.717c0-4.859-3.953-8.812-8.812-8.812h-12.193c-.273 0-.495.222-.495.495v9.456c0 8.541-6.948 15.489-15.489 15.489h-20.403z"/></g></g><g><g><path d="m142.16 142.936h-19.08c-1.381 0-2.5-1.119-2.5-2.5s1.119-2.5 2.5-2.5h19.08c1.381 0 2.5 1.119 2.5 2.5s-1.119 2.5-2.5 2.5z"/></g></g><g><g><path d="m106.65 93.115c-4.009 0-7.27-3.261-7.27-7.27s3.261-7.271 7.27-7.271 7.27 3.262 7.27 7.271-3.261 7.27-7.27 7.27zm0-9.54c-1.251 0-2.27 1.019-2.27 2.271 0 1.251 1.019 2.27 2.27 2.27s2.27-1.019 2.27-2.27c0-1.253-1.019-2.271-2.27-2.271z"/></g></g><g><g><path d="m127.85 162.016c-4.009 0-7.27-3.261-7.27-7.27s3.261-7.27 7.27-7.27c4.008 0 7.27 3.261 7.27 7.27s-3.262 7.27-7.27 7.27zm0-9.54c-1.251 0-2.27 1.019-2.27 2.27s1.019 2.27 2.27 2.27 2.27-1.019 2.27-2.27-1.018-2.27-2.27-2.27z"/></g></g></g></g></svg>