<?xml version="1.0" encoding="UTF-8" standalone="no"?>
<!-- Created with Inkscape (http://www.inkscape.org/) -->

<svg
   xmlns:dc="http://purl.org/dc/elements/1.1/"
   xmlns:cc="http://creativecommons.org/ns#"
   xmlns:rdf="http://www.w3.org/1999/02/22-rdf-syntax-ns#"
   xmlns:svg="http://www.w3.org/2000/svg"
   xmlns="http://www.w3.org/2000/svg"
   xmlns:sodipodi="http://sodipodi.sourceforge.net/DTD/sodipodi-0.dtd"
   xmlns:inkscape="http://www.inkscape.org/namespaces/inkscape"
   width="210mm"
   height="297mm"
   viewBox="0 0 210 297"
   version="1.1"
   id="svg8"
   sodipodi:docname="logo2.svg"
   inkscape:version="0.92.3 (2405546, 2018-03-11)">
  <defs
     id="defs2" />
  <sodipodi:namedview
     id="base"
     pagecolor="#ffffff"
     bordercolor="#666666"
     borderopacity="1.0"
     inkscape:pageopacity="0.0"
     inkscape:pageshadow="2"
     inkscape:zoom="0.35"
     inkscape:cx="540"
     inkscape:cy="520"
     inkscape:document-units="mm"
     inkscape:current-layer="layer1"
     showgrid="false"
     inkscape:window-width="1366"
     inkscape:window-height="705"
     inkscape:window-x="-8"
     inkscape:window-y="-8"
     inkscape:window-maximized="1" />
  <metadata
     id="metadata5">
    <rdf:RDF>
      <cc:Work
         rdf:about="">
        <dc:format>image/svg+xml</dc:format>
        <dc:type
           rdf:resource="http://purl.org/dc/dcmitype/StillImage" />
        <dc:title></dc:title>
      </cc:Work>
    </rdf:RDF>
  </metadata>
  <g
     inkscape:label="Layer 1"
     inkscape:groupmode="layer"
     id="layer1">
    <path
       style="fill:none;stroke:#000000;stroke-width:0.65289474px;stroke-linecap:butt;stroke-linejoin:miter;stroke-opacity:1"
       d="M 0.14772213,5.3459623 V 294.56898 c 0,0 207.96943787,27.16458 207.96943787,-152.60108 C 208.11716,-37.797802 0.14772213,5.3459623 0.14772213,5.3459623 Z"
       id="path10"
       inkscape:connector-curvature="0" />
    <path
       style="fill:none;stroke:#000000;stroke-width:0.47528455px;stroke-linecap:butt;stroke-linejoin:miter;stroke-opacity:1"
       d="m 18.780567,26.121187 c 0,93.447873 0,256.021583 0,256.021583 0,0 167.102403,2.56023 167.102403,-148.49251 0,-151.052734 -167.102403,-107.529073 -167.102403,-107.529073 z"
       id="path12"
       inkscape:connector-curvature="0" />
    <path
       style="stroke-width:1.35795581"
       d="M 6.463968,294.36334 1.7822226,293.75755 V 149.92823 6.0989096 L 5.7436995,5.3442635 C 23.333553,1.9934638 62.25914,1.0094798 81.779797,3.4221811 118.3461,7.9416774 144.20377,18.526205 166.00355,37.898179 c 28.53965,25.361258 40.49512,56.178 40.49512,104.381421 0,48.36214 -13.17814,82.23123 -42.4982,109.22456 -22.88262,21.06675 -53.01396,34.15619 -93.072438,40.43195 -13.295817,2.08297 -54.991522,3.65291 -64.464064,2.42723 z m 40.738153,-13.84968 c 28.507569,-4.10885 60.396259,-15.36823 79.311699,-28.00369 28.29938,-18.90385 47.01153,-45.14023 55.7764,-78.20426 2.6818,-10.11659 3.06784,-15.35547 3.0241,-41.03949 -0.047,-27.66198 -0.27816,-30.19415 -3.8207,-41.872287 C 169.38843,51.488762 140.19808,27.803946 95.108492,21.301763 77.174251,18.715546 47.407509,19.784939 25.661006,23.796719 l -8.032867,1.481908 V 153.83871 282.39878 l 8.283093,-0.006 c 4.555698,-0.003 14.1366,-0.84883 21.290889,-1.88 z"
       id="path14"
       inkscape:connector-curvature="0" />
    <path
       style="fill:#ffffff;stroke-width:2.85714293"
       d="M 14.142857,1109.9011 C 9.403832,1108.4655 9.1428571,1080.0782 9.1428571,566.03206 V 23.677714 L 27,20.678687 c 42.767109,-7.182542 91.94555,-10.069396 172.14286,-10.105065 91.53577,-0.04071 117.87223,2.351306 187.64043,17.042493 104.73451,22.054087 192.20402,68.40789 261.70571,138.688945 36.1236,36.52867 57.69783,66.18317 77.68891,106.78605 38.25086,77.68935 51.53638,145.92646 51.53638,264.70106 0,87.00843 -8.69949,150.91892 -28.78135,211.44132 -36.68185,110.55117 -113.9554,203.75868 -221.09277,266.68261 -76.63174,45.0073 -188.8284,79.4938 -292.98303,90.0558 -32.06679,3.2518 -212.355592,6.4613 -220.714283,3.9292 z M 142.21806,1065.722 c 109.06675,-10.7749 234.0344,-49.4884 316.59274,-98.07654 54.17306,-31.88255 110.50683,-82.889 150.18554,-135.98292 38.56729,-51.60674 76.26886,-138.69031 87.21212,-201.44371 5.85868,-33.59609 6.09917,-214.886 0.32785,-247.12772 C 688.43234,337.818 666.25626,282.9965 639.04997,240.97924 617.6136,207.87301 570.04774,161.16674 536.88471,140.66025 483.29437,107.52247 417.21671,85.801459 344.74137,77.499019 c -32.85586,-3.763817 -115.80782,-3.757694 -159.88423,0.0118 -31.6176,2.703995 -101.873714,12.57054 -113.571426,15.949612 -4.736697,1.368271 -5,27.087419 -5,488.394659 v 486.95031 h 22.36092 c 12.298506,0 36.405646,-1.3875 53.571426,-3.0834 z"
       id="path66"
       inkscape:connector-curvature="0"
       transform="scale(0.26458333)" />
  </g>
</svg>
