<svg xmlns="http://www.w3.org/2000/svg" xmlns:svg="http://www.w3.org/2000/svg" id="Flat" width="512" height="512" version="1.1" viewBox="0 0 512 512"><metadata id="metadata33"/><path id="path2" d="m 120,488 h 272 a 48,48 0 0 0 48,-48 V 72 A 48,48 0 0 0 392,24 H 168 l -96,96 v 320 a 48,48 0 0 0 48,48 z" style="fill:#cfd2fc"/><path id="path4" d="M 440,360 H 72 v 80 a 48,48 0 0 0 48,48 h 272 a 48,48 0 0 0 48,-48 z" style="fill:#5153ff"/><g id="g20" transform="matrix(-1,0,0,1,512,0)" style="fill:#8690fa"><path id="path6" d="M 440,120 H 392 A 48,48 0 0 1 344,72 V 24 Z"/><circle id="circle8" cx="256" cy="200" r="8"/><circle id="circle10" cx="256" cy="232" r="8"/><path id="path12" d="m 152,224 a 8,8 0 0 1 0,-16 8.009,8.009 0 0 0 8,-8 v -32 a 24.028,24.028 0 0 1 24,-24 8,8 0 0 1 0,16 8.009,8.009 0 0 0 -8,8 v 32 a 24.028,24.028 0 0 1 -24,24 z"/><path id="path14" d="m 184,288 a 24.028,24.028 0 0 1 -24,-24 v -32 a 8.009,8.009 0 0 0 -8,-8 8,8 0 0 1 0,-16 24.028,24.028 0 0 1 24,24 v 32 a 8.009,8.009 0 0 0 8,8 8,8 0 0 1 0,16 z"/><path id="path16" d="m 328,288 a 8,8 0 0 1 0,-16 8.009,8.009 0 0 0 8,-8 v -32 a 24.028,24.028 0 0 1 24,-24 8,8 0 0 1 0,16 8.009,8.009 0 0 0 -8,8 v 32 a 24.028,24.028 0 0 1 -24,24 z"/><path id="path18" d="m 360,224 a 24.028,24.028 0 0 1 -24,-24 v -32 a 8.009,8.009 0 0 0 -8,-8 8,8 0 0 1 0,-16 24.028,24.028 0 0 1 24,24 v 32 a 8.009,8.009 0 0 0 8,8 8,8 0 0 1 0,16 z"/></g><path id="path22" d="m 256,400 h 16 a 8,8 0 0 0 0,-16 h -16 a 24,24 0 0 0 0,48 8,8 0 0 1 0,16 h -16 a 8,8 0 0 0 0,16 h 16 a 24,24 0 0 0 0,-48 8,8 0 0 1 0,-16 z" style="fill:#fff"/><path id="path24" d="m 322.03376,400 h 16 a 8,8 0 0 0 0,-16 h -16 a 24,24 0 0 0 0,48 8,8 0 0 1 0,16 h -16 a 8,8 0 0 0 0,16 h 16 a 24,24 0 0 0 0,-48 8,8 0 0 1 0,-16 z" style="fill:#fff"/><path id="path26" d="m 201.62698,400 a 10.708,10.708 0 0 1 4.59,1.058 8.0001418,8.0001418 0 0 0 6.82,-14.474 26.581,26.581 0 0 0 -11.41,-2.584 c -17.645,0 -32,17.944 -32,40 0,22.056 14.355,40 32,40 a 26.581,26.581 0 0 0 11.41,-2.584 8.0001418,8.0001418 0 1 0 -6.82,-14.474 10.708,10.708 0 0 1 -4.59,1.058 c -8.673,0 -16,-10.991 -16,-24 0,-13.009 7.327,-24 16,-24 z" style="fill:#fff"/></svg>