<?xml version="1.0" encoding="UTF-8" standalone="no"?>
<svg
   xmlns:dc="http://purl.org/dc/elements/1.1/"
   xmlns:cc="http://creativecommons.org/ns#"
   xmlns:rdf="http://www.w3.org/1999/02/22-rdf-syntax-ns#"
   xmlns:svg="http://www.w3.org/2000/svg"
   xmlns="http://www.w3.org/2000/svg"
   xmlns:sodipodi="http://sodipodi.sourceforge.net/DTD/sodipodi-0.dtd"
   xmlns:inkscape="http://www.inkscape.org/namespaces/inkscape"
   id="Flat"
   height="512"
   viewBox="0 0 512 512"
   width="512"
   version="1.1"
   sodipodi:docname="css.svg"
   inkscape:version="0.92.3 (2405546, 2018-03-11)">
  <metadata
     id="metadata33">
    <rdf:RDF>
      <cc:Work
         rdf:about="">
        <dc:format>image/svg+xml</dc:format>
        <dc:type
           rdf:resource="http://purl.org/dc/dcmitype/StillImage" />
      </cc:Work>
    </rdf:RDF>
  </metadata>
  <defs
     id="defs31" />
  <sodipodi:namedview
     pagecolor="#ffffff"
     bordercolor="#666666"
     borderopacity="1"
     objecttolerance="10"
     gridtolerance="10"
     guidetolerance="10"
     inkscape:pageopacity="0"
     inkscape:pageshadow="2"
     inkscape:window-width="1366"
     inkscape:window-height="745"
     id="namedview29"
     showgrid="false"
     inkscape:zoom="0.32593203"
     inkscape:cx="-127.5772"
     inkscape:cy="346.85599"
     inkscape:window-x="-8"
     inkscape:window-y="-8"
     inkscape:window-maximized="1"
     inkscape:current-layer="Flat" />
  <path
     d="m 120,488 h 272 a 48,48 0 0 0 48,-48 V 72 A 48,48 0 0 0 392,24 H 168 l -96,96 v 320 a 48,48 0 0 0 48,48 z"
     id="path2"
     inkscape:connector-curvature="0"
     style="fill:#cfd2fc" />
  <path
     d="M 440,360 H 72 v 80 a 48,48 0 0 0 48,48 h 272 a 48,48 0 0 0 48,-48 z"
     id="path4"
     inkscape:connector-curvature="0"
     style="fill:#5153ff" />
  <g
     id="g20"
     transform="matrix(-1,0,0,1,512,0)"
     style="fill:#8690fa">
    <path
       d="M 440,120 H 392 A 48,48 0 0 1 344,72 V 24 Z"
       id="path6"
       inkscape:connector-curvature="0" />
    <circle
       cx="256"
       cy="200"
       r="8"
       id="circle8" />
    <circle
       cx="256"
       cy="232"
       r="8"
       id="circle10" />
    <path
       d="m 152,224 a 8,8 0 0 1 0,-16 8.009,8.009 0 0 0 8,-8 v -32 a 24.028,24.028 0 0 1 24,-24 8,8 0 0 1 0,16 8.009,8.009 0 0 0 -8,8 v 32 a 24.028,24.028 0 0 1 -24,24 z"
       id="path12"
       inkscape:connector-curvature="0" />
    <path
       d="m 184,288 a 24.028,24.028 0 0 1 -24,-24 v -32 a 8.009,8.009 0 0 0 -8,-8 8,8 0 0 1 0,-16 24.028,24.028 0 0 1 24,24 v 32 a 8.009,8.009 0 0 0 8,8 8,8 0 0 1 0,16 z"
       id="path14"
       inkscape:connector-curvature="0" />
    <path
       d="m 328,288 a 8,8 0 0 1 0,-16 8.009,8.009 0 0 0 8,-8 v -32 a 24.028,24.028 0 0 1 24,-24 8,8 0 0 1 0,16 8.009,8.009 0 0 0 -8,8 v 32 a 24.028,24.028 0 0 1 -24,24 z"
       id="path16"
       inkscape:connector-curvature="0" />
    <path
       d="m 360,224 a 24.028,24.028 0 0 1 -24,-24 v -32 a 8.009,8.009 0 0 0 -8,-8 8,8 0 0 1 0,-16 24.028,24.028 0 0 1 24,24 v 32 a 8.009,8.009 0 0 0 8,8 8,8 0 0 1 0,16 z"
       id="path18"
       inkscape:connector-curvature="0" />
  </g>
  <path
     d="m 256,400 h 16 a 8,8 0 0 0 0,-16 h -16 a 24,24 0 0 0 0,48 8,8 0 0 1 0,16 h -16 a 8,8 0 0 0 0,16 h 16 a 24,24 0 0 0 0,-48 8,8 0 0 1 0,-16 z"
     id="path22"
     inkscape:connector-curvature="0"
     style="fill:#ffffff" />
  <path
     d="m 322.03376,400 h 16 a 8,8 0 0 0 0,-16 h -16 a 24,24 0 0 0 0,48 8,8 0 0 1 0,16 h -16 a 8,8 0 0 0 0,16 h 16 a 24,24 0 0 0 0,-48 8,8 0 0 1 0,-16 z"
     id="path24"
     inkscape:connector-curvature="0"
     style="fill:#ffffff" />
  <path
     d="m 201.62698,400 a 10.708,10.708 0 0 1 4.59,1.058 8.0001418,8.0001418 0 0 0 6.82,-14.474 26.581,26.581 0 0 0 -11.41,-2.584 c -17.645,0 -32,17.944 -32,40 0,22.056 14.355,40 32,40 a 26.581,26.581 0 0 0 11.41,-2.584 8.0001418,8.0001418 0 1 0 -6.82,-14.474 10.708,10.708 0 0 1 -4.59,1.058 c -8.673,0 -16,-10.991 -16,-24 0,-13.009 7.327,-24 16,-24 z"
     id="path26"
     inkscape:connector-curvature="0"
     style="fill:#ffffff" />
</svg>
