<svg xmlns="http://www.w3.org/2000/svg" xmlns:svg="http://www.w3.org/2000/svg" id="Flat" width="512" height="512" version="1.1" viewBox="0 0 512 512"><metadata id="metadata29"/><path id="path2" d="m 120,488 h 272 a 48,48 0 0 0 48,-48 V 72 A 48,48 0 0 0 392,24 H 168 l -96,96 v 320 a 48,48 0 0 0 48,48 z" style="fill:#cfd2fc"/><path id="path4" d="M 440,360 H 72 v 80 a 48,48 0 0 0 48,48 h 272 a 48,48 0 0 0 48,-48 z" style="fill:#5153ff"/><g id="g14" transform="matrix(-1,0,0,1,512,4.2476148e-6)" style="fill:#8690fa"><path id="path6" d="M 440,120 H 392 A 48,48 0 0 1 344,72 V 24 Z"/><path id="path8" d="m 200,264 a 7.976,7.976 0 0 1 -5.657,-2.343 l -48,-48 a 8,8 0 0 1 0,-11.314 l 48,-48 a 8.0002061,8.0002061 0 0 1 11.314,11.314 L 163.313,208 205.657,250.343 A 8,8 0 0 1 200,264 Z"/><path id="path10" d="m 312,264 a 8,8 0 0 1 -5.657,-13.657 L 348.687,208 306.343,165.657 a 8.0002061,8.0002061 0 0 1 11.314,-11.314 l 48,48 a 8,8 0 0 1 0,11.314 l -48,48 A 7.976,7.976 0 0 1 312,264 Z"/><path id="path12" d="m 232,288 a 8.006,8.006 0 0 1 -7.59,-10.532 l 48,-144 a 8,8 0 1 1 15.178,5.06 l -48,144 A 8,8 0 0 1 232,288 Z"/></g><path id="path16" d="m 129.35592,384.81356 a 8,8 0 0 1 8,8 v 24 h 16.00001 v -24 a 8,8 0 0 1 16,0 v 64 a 8,8 0 0 1 -16,0 v -24 h -16.00001 v 24 a 8,8 0 0 1 -16,0 v -64 a 8,8 0 0 1 8,-8 z" style="fill:#fff"/><path id="path18" d="m 201.89831,386.16949 h 32 a 8,8 0 0 1 0,16 h -8 v 56 a 8,8 0 0 1 -16,0 v -56 h -8 a 8,8 0 0 1 0,-16 z" style="fill:#fff"/><path id="path20" d="m 271.92471,386.38349 a 8,8 0 0 1 8.993,4.208 l 16.845,33.689 16.845,-33.689 a 8,8 0 0 1 15.155,3.578 v 64 a 8,8 0 0 1 -16,0 v -30.111 l -8.845,17.689 a 8,8 0 0 1 -14.31,0 l -8.845,-17.689 v 30.111 a 8,8 0 0 1 -16,0 v -64 a 8,8 0 0 1 6.162,-7.786 z" style="fill:#fff"/><path id="path22" d="m 395.79661,448 h -24 v -56 a 8,8 0 0 0 -16,0 v 64 a 8,8 0 0 0 8,8 h 32 a 8,8 0 0 0 0,-16 z" style="fill:#fff"/></svg>