<?xml version="1.0" encoding="iso-8859-1"?>
<!-- Generator: Adobe Illustrator 19.0.0, SVG Export Plug-In . SVG Version: 6.00 Build 0)  -->
<svg version="1.1" id="Capa_1" xmlns="http://www.w3.org/2000/svg" xmlns:xlink="http://www.w3.org/1999/xlink" x="0px" y="0px"
	 viewBox="0 0 512 512" style="enable-background:new 0 0 512 512;" xml:space="preserve">
<path style="fill:#A5F4FF;" d="M512,89.766v332.468c0,30.035-24.434,54.47-54.47,54.47H54.48C24.444,476.704,0,452.27,0,422.234
	V89.766c0-30.035,24.444-54.47,54.48-54.47H457.53C487.566,35.296,512,59.731,512,89.766z"/>
<path style="fill:#75E2FF;" d="M512,89.766v332.468c0,30.035-24.434,54.47-54.47,54.47H252.504V35.296H457.53
	C487.566,35.296,512,59.731,512,89.766z"/>
<path style="fill:#EEEFFF;" d="M512,89.766v49.639H0V89.766c0-30.035,24.444-54.47,54.48-54.47H457.53
	C487.566,35.296,512,59.731,512,89.766z"/>
<path style="fill:#CFCFED;" d="M512,89.766v49.639H252.504V35.296H457.53C487.566,35.296,512,59.731,512,89.766z"/>
<g>
	<path style="fill:#BCBBD8;" d="M64.501,102.528c-0.49,0-0.99-0.02-1.47-0.07c-0.49-0.05-0.98-0.12-1.46-0.22
		c-0.48-0.1-0.96-0.22-1.431-0.36c-0.46-0.14-0.93-0.31-1.38-0.5c-0.45-0.18-0.899-0.39-1.33-0.62c-0.43-0.23-0.85-0.48-1.26-0.75
		c-0.41-0.28-0.8-0.57-1.18-0.88c-0.38-0.31-0.75-0.64-1.101-0.99c-0.34-0.35-0.68-0.71-0.989-1.09
		c-0.311-0.38-0.601-0.78-0.87-1.19c-0.271-0.41-0.53-0.83-0.76-1.26c-0.221-0.43-0.431-0.88-0.62-1.33
		c-0.19-0.45-0.351-0.91-0.5-1.38c-0.141-0.47-0.261-0.95-0.36-1.43c-0.09-0.48-0.17-0.97-0.22-1.45c-0.05-0.49-0.07-0.99-0.07-1.48
		c0-0.49,0.021-0.98,0.07-1.47c0.05-0.49,0.13-0.98,0.22-1.46c0.1-0.47,0.22-0.95,0.36-1.42c0.149-0.47,0.31-0.93,0.5-1.38
		c0.189-0.45,0.399-0.9,0.62-1.33c0.229-0.43,0.489-0.86,0.76-1.26c0.27-0.41,0.56-0.81,0.87-1.19c0.31-0.38,0.649-0.75,0.989-1.09
		c0.351-0.35,0.721-0.68,1.101-0.99c0.38-0.31,0.77-0.61,1.18-0.88c0.41-0.27,0.83-0.52,1.26-0.75c0.431-0.23,0.88-0.44,1.33-0.63
		c0.45-0.18,0.92-0.35,1.38-0.49c0.471-0.15,0.95-0.27,1.431-0.36c0.479-0.1,0.97-0.17,1.46-0.22c0.97-0.1,1.97-0.1,2.951,0
		c0.479,0.05,0.97,0.12,1.449,0.22c0.48,0.09,0.96,0.21,1.42,0.36c0.471,0.14,0.94,0.31,1.391,0.49c0.45,0.19,0.89,0.4,1.319,0.63
		c0.431,0.23,0.86,0.48,1.261,0.75c0.41,0.27,0.81,0.57,1.189,0.88c0.379,0.31,0.75,0.64,1.09,0.99c0.351,0.34,0.681,0.71,1,1.09
		c0.301,0.38,0.601,0.78,0.87,1.19c0.271,0.4,0.521,0.83,0.75,1.26c0.23,0.43,0.44,0.88,0.63,1.33c0.19,0.45,0.351,0.91,0.5,1.38
		c0.141,0.47,0.261,0.95,0.36,1.42c0.09,0.48,0.17,0.97,0.22,1.46c0.04,0.49,0.07,0.98,0.07,1.47c0,0.49-0.03,0.99-0.07,1.48
		c-0.05,0.48-0.13,0.97-0.22,1.45c-0.1,0.48-0.22,0.96-0.36,1.43c-0.149,0.47-0.31,0.93-0.5,1.38c-0.189,0.45-0.399,0.9-0.63,1.33
		c-0.229,0.43-0.479,0.85-0.75,1.26c-0.27,0.41-0.569,0.81-0.87,1.19c-0.319,0.38-0.649,0.74-1,1.09c-0.34,0.35-0.71,0.68-1.09,0.99
		c-0.38,0.31-0.779,0.6-1.189,0.88c-0.4,0.27-0.83,0.52-1.261,0.75c-0.43,0.23-0.869,0.44-1.319,0.62
		c-0.45,0.19-0.92,0.36-1.391,0.5c-0.46,0.14-0.939,0.26-1.42,0.36c-0.479,0.1-0.97,0.17-1.449,0.22
		C65.492,102.508,64.991,102.528,64.501,102.528z"/>
	<path style="fill:#BCBBD8;" d="M106.929,102.528c-0.49,0-0.979-0.02-1.47-0.07c-0.49-0.05-0.98-0.12-1.46-0.22
		c-0.48-0.1-0.95-0.22-1.42-0.36c-0.471-0.14-0.931-0.31-1.38-0.5c-0.45-0.18-0.9-0.39-1.33-0.62c-0.431-0.23-0.86-0.48-1.261-0.75
		c-0.409-0.28-0.81-0.57-1.189-0.88c-0.38-0.31-0.74-0.64-1.09-0.99c-0.351-0.35-0.681-0.71-0.99-1.09
		c-0.31-0.38-0.61-0.78-0.88-1.19c-0.271-0.41-0.521-0.83-0.75-1.26c-0.23-0.43-0.44-0.88-0.63-1.33
		c-0.181-0.45-0.351-0.91-0.49-1.38c-0.15-0.47-0.271-0.95-0.36-1.43c-0.1-0.48-0.17-0.97-0.22-1.45c-0.05-0.49-0.08-0.99-0.08-1.48
		c0-0.49,0.03-0.98,0.08-1.47c0.05-0.49,0.12-0.98,0.22-1.46c0.09-0.48,0.21-0.95,0.36-1.42c0.14-0.47,0.31-0.93,0.49-1.38
		c0.189-0.45,0.399-0.9,0.63-1.33c0.229-0.43,0.479-0.86,0.75-1.26c0.27-0.41,0.57-0.81,0.88-1.19s0.64-0.75,0.99-1.09
		c0.35-0.35,0.71-0.68,1.09-0.99s0.78-0.61,1.189-0.88c0.4-0.27,0.83-0.52,1.261-0.75c0.43-0.23,0.88-0.44,1.33-0.63
		c0.449-0.18,0.909-0.35,1.38-0.49c0.47-0.14,0.939-0.27,1.42-0.36c0.479-0.1,0.97-0.17,1.46-0.22c0.979-0.1,1.97-0.1,2.951,0
		c0.489,0.05,0.97,0.12,1.449,0.22c0.48,0.09,0.96,0.22,1.431,0.36c0.47,0.14,0.93,0.31,1.38,0.49c0.45,0.19,0.899,0.4,1.33,0.63
		c0.43,0.23,0.85,0.48,1.26,0.75c0.41,0.27,0.81,0.57,1.18,0.88c0.38,0.31,0.75,0.64,1.101,0.99c0.35,0.34,0.68,0.71,0.99,1.09
		s0.6,0.78,0.869,1.19c0.271,0.4,0.53,0.83,0.761,1.26c0.229,0.43,0.439,0.88,0.62,1.33c0.189,0.45,0.359,0.91,0.5,1.38
		c0.14,0.47,0.26,0.94,0.359,1.42c0.101,0.48,0.17,0.97,0.22,1.46c0.051,0.49,0.08,0.98,0.08,1.47c0,0.49-0.029,0.99-0.08,1.48
		c-0.05,0.48-0.119,0.97-0.22,1.45c-0.1,0.48-0.22,0.96-0.359,1.43c-0.141,0.47-0.311,0.93-0.5,1.38
		c-0.181,0.45-0.391,0.9-0.62,1.33c-0.23,0.43-0.49,0.85-0.761,1.26c-0.27,0.41-0.56,0.81-0.869,1.19
		c-0.311,0.38-0.641,0.74-0.99,1.09c-0.351,0.35-0.721,0.68-1.101,0.99c-0.37,0.31-0.77,0.6-1.18,0.88
		c-0.41,0.27-0.83,0.52-1.26,0.75c-0.431,0.23-0.88,0.44-1.33,0.62c-0.45,0.19-0.91,0.36-1.38,0.5c-0.471,0.14-0.95,0.26-1.431,0.36
		c-0.479,0.1-0.96,0.17-1.449,0.22C107.919,102.508,107.419,102.528,106.929,102.528z"/>
	<path style="fill:#BCBBD8;" d="M149.945,102.528c-0.489,0-0.989-0.02-1.479-0.07c-0.49-0.05-0.98-0.12-1.46-0.22
		c-0.47-0.1-0.95-0.22-1.42-0.36c-0.471-0.14-0.931-0.31-1.38-0.5c-0.45-0.18-0.9-0.39-1.33-0.62c-0.431-0.23-0.86-0.48-1.261-0.75
		c-0.409-0.28-0.81-0.57-1.189-0.88c-0.38-0.31-0.75-0.64-1.09-0.99c-0.351-0.34-0.681-0.71-0.99-1.09
		c-0.31-0.38-0.61-0.78-0.88-1.19c-0.271-0.41-0.521-0.83-0.75-1.26c-0.23-0.43-0.44-0.88-0.63-1.33
		c-0.181-0.45-0.351-0.91-0.49-1.38c-0.139-0.47-0.271-0.95-0.36-1.43c-0.1-0.48-0.17-0.97-0.22-1.45
		c-0.05-0.49-0.08-0.99-0.08-1.48c0-0.49,0.03-0.98,0.08-1.47c0.05-0.49,0.12-0.98,0.22-1.46c0.09-0.47,0.221-0.95,0.36-1.42
		c0.14-0.47,0.31-0.93,0.49-1.38c0.189-0.45,0.399-0.9,0.63-1.33c0.229-0.43,0.479-0.86,0.75-1.26c0.27-0.41,0.57-0.81,0.88-1.19
		c0.31-0.38,0.64-0.75,0.99-1.09c0.34-0.35,0.71-0.68,1.09-0.99s0.78-0.61,1.189-0.88c0.4-0.27,0.83-0.52,1.261-0.75
		c0.43-0.23,0.88-0.44,1.33-0.63c0.449-0.18,0.909-0.35,1.38-0.49c0.47-0.14,0.95-0.27,1.42-0.36c0.479-0.1,0.97-0.17,1.46-0.22
		c0.979-0.1,1.97-0.1,2.951,0c0.489,0.05,0.979,0.12,1.46,0.22c0.47,0.09,0.949,0.22,1.42,0.36c0.47,0.14,0.93,0.31,1.38,0.49
		c0.45,0.19,0.899,0.4,1.33,0.63c0.43,0.23,0.859,0.48,1.26,0.75c0.41,0.27,0.81,0.57,1.18,0.88c0.391,0.31,0.75,0.64,1.101,0.99
		c0.35,0.34,0.68,0.71,0.99,1.09s0.6,0.78,0.88,1.19c0.27,0.4,0.52,0.83,0.75,1.26c0.229,0.43,0.439,0.88,0.63,1.33
		c0.18,0.45,0.35,0.91,0.49,1.38c0.14,0.47,0.27,0.95,0.359,1.42c0.101,0.48,0.17,0.97,0.22,1.46c0.051,0.49,0.08,0.98,0.08,1.47
		c0,0.49-0.029,0.99-0.08,1.48c-0.05,0.48-0.119,0.97-0.22,1.45c-0.09,0.48-0.22,0.96-0.359,1.43c-0.141,0.47-0.311,0.93-0.49,1.38
		c-0.19,0.45-0.4,0.9-0.63,1.33c-0.23,0.43-0.48,0.85-0.75,1.26c-0.28,0.41-0.57,0.81-0.88,1.19c-0.311,0.38-0.641,0.75-0.99,1.09
		c-0.351,0.35-0.71,0.68-1.101,0.99c-0.37,0.31-0.77,0.6-1.18,0.88c-0.4,0.27-0.83,0.52-1.26,0.75c-0.431,0.23-0.88,0.44-1.33,0.62
		c-0.45,0.19-0.91,0.36-1.38,0.5c-0.471,0.14-0.95,0.26-1.42,0.36c-0.48,0.1-0.971,0.17-1.46,0.22
		C150.927,102.508,150.426,102.528,149.945,102.528z"/>
	<path style="fill:#BCBBD8;" d="M448.189,35.296v47.888c0,8.281-6.721,15.003-15.003,15.003c-8.291,0-15.003-6.721-15.003-15.003
		V35.296H448.189z"/>
	<path style="fill:#BCBBD8;" d="M404.391,35.296v47.888c0,8.281-6.711,15.003-15.003,15.003c-8.281,0-15.003-6.721-15.003-15.003
		V35.296H404.391z"/>
</g>
<g>
	<path style="fill:#61729B;" d="M182.332,220.519c-7.501-6.591-17.473-9.882-29.915-9.882H115.97c-2.66,0-4.801,0.72-6.431,2.17
		c-1.63,1.45-2.45,3.151-2.45,5.081v117.841c0,2.29,1.15,4.111,3.451,5.441c2.29,1.33,5.071,1.99,8.341,1.99
		c3.141,0,5.891-0.66,8.241-1.99c2.36-1.33,3.541-3.151,3.541-5.441v-42.067h20.304c12.812,0,23.114-3.321,30.905-9.972
		c7.801-6.641,11.692-17.033,11.692-31.175v-1.09C193.564,237.402,189.823,227.1,182.332,220.519z M170,254.325
		c0,6.891-1.66,12.092-4.981,15.593c-3.331,3.511-8.011,5.261-14.052,5.261h-20.304v-43.878h20.304
		c6.041,0,10.722,1.75,14.052,5.261c3.321,3.501,4.981,8.702,4.981,15.593V254.325z"/>
	<path style="fill:#61729B;" d="M292.551,212.447c-2.3-1.21-5.071-1.81-8.341-1.81c-3.261,0-6.041,0.6-8.331,1.81
		c-2.3,1.21-3.451,3.021-3.451,5.441v47.318h-40.787v-47.318c0-2.42-1.15-4.231-3.451-5.441c-2.29-1.21-5.071-1.81-8.331-1.81
		c-3.271,0-6.051,0.6-8.341,1.81c-2.3,1.21-3.451,3.021-3.451,5.441v117.841c0,2.29,1.15,4.111,3.451,5.441
		c2.29,1.33,5.071,1.99,8.341,1.99c3.141,0,5.891-0.66,8.241-1.99c2.36-1.33,3.541-3.151,3.541-5.441V283.69h40.787v52.039
		c0,2.29,1.15,4.111,3.451,5.441c2.29,1.33,5.071,1.99,8.331,1.99c3.141,0,5.891-0.66,8.251-1.99c2.36-1.33,3.541-3.151,3.541-5.441
		V217.888C296.002,215.468,294.852,213.658,292.551,212.447z"/>
</g>
<path style="fill:#57658C;" d="M392.989,220.519c-7.491-6.591-17.463-9.882-29.915-9.882h-36.436c-2.66,0-4.811,0.72-6.441,2.17
	c-1.63,1.45-2.44,3.151-2.44,5.081v117.841c0,2.29,1.14,4.111,3.441,5.441c2.3,1.33,5.081,1.99,8.341,1.99
	c3.141,0,5.891-0.66,8.251-1.99c2.35-1.33,3.531-3.151,3.531-5.441v-42.067h20.304c12.812,0,23.114-3.321,30.915-9.972
	c7.791-6.641,11.692-17.033,11.692-31.175v-1.09C404.231,237.402,400.48,227.1,392.989,220.519z M380.657,254.325
	c0,6.891-1.66,12.092-4.981,15.593c-3.331,3.511-8.011,5.261-14.052,5.261H341.32v-43.878h20.304c6.041,0,10.722,1.75,14.052,5.261
	c3.321,3.501,4.981,8.702,4.981,15.593V254.325z"/>
<path style="fill:#61729B;" d="M404.341,379.237c0,8.291-6.711,15.003-15.003,15.003H122.992c-8.281,0-15.003-6.711-15.003-15.003
	c0-8.281,6.721-15.003,15.003-15.003h266.347C397.63,364.234,404.341,370.955,404.341,379.237z"/>
<g>
	<path style="fill:#57658C;" d="M272.428,283.69h-19.923v-18.483h19.923v-47.318c0-2.42,1.15-4.231,3.451-5.441
		c2.29-1.21,5.071-1.81,8.331-1.81c3.271,0,6.041,0.6,8.341,1.81c2.3,1.21,3.451,3.021,3.451,5.441v117.841
		c0,2.29-1.18,4.111-3.541,5.441c-2.36,1.33-5.111,1.99-8.251,1.99c-3.261,0-6.041-0.66-8.331-1.99
		c-2.3-1.33-3.451-3.151-3.451-5.441V283.69z"/>
	<path style="fill:#57658C;" d="M404.341,379.237c0,8.291-6.711,15.003-15.003,15.003H252.504v-30.005h136.834
		C397.63,364.234,404.341,370.955,404.341,379.237z"/>
</g>
<g>
</g>
<g>
</g>
<g>
</g>
<g>
</g>
<g>
</g>
<g>
</g>
<g>
</g>
<g>
</g>
<g>
</g>
<g>
</g>
<g>
</g>
<g>
</g>
<g>
</g>
<g>
</g>
<g>
</g>
</svg>
